<?xml version="1.0" encoding="iso-8859-1"?>
<!-- Generator: Adobe Illustrator 18.0.0, SVG Export Plug-In . SVG Version: 6.00 Build 0)  -->
<!DOCTYPE svg PUBLIC "-//W3C//DTD SVG 1.1//EN" "http://www.w3.org/Graphics/SVG/1.1/DTD/svg11.dtd">
<svg version="1.1" id="Capa_1" xmlns="http://www.w3.org/2000/svg" xmlns:xlink="http://www.w3.org/1999/xlink" x="0px" y="0px"
	 viewBox="0 0 297 297" style="enable-background:new 0 0 297 297;" xml:space="preserve">
<g>
	<path d="M200.438,181.781H79.25c-5.522,0-10,4.478-10,10s4.478,10,10,10h121.188c5.522,0,10-4.478,10-10
		S205.96,181.781,200.438,181.781z"/>
	<path d="M290.827,78.667c-3.738-1.546-8.039-0.691-10.898,2.168l-14.384,14.384h-20.482v-6.708
		c0-15.394-12.523-27.917-27.917-27.917H62.542c-11.641,0-21.635,7.164-25.819,17.313H10c-5.522,0-10,4.478-10,10v51.938
		c0,5.522,4.478,10,10,10h24.625v58.646c0,15.394,12.523,27.917,27.917,27.917h154.604c15.394,0,27.917-12.523,27.917-27.917
		v-41.333h20.482l14.384,14.384c1.913,1.913,4.471,2.929,7.073,2.929c1.288,0,2.588-0.249,3.825-0.761
		c3.736-1.548,6.173-5.194,6.173-9.239V87.906C297,83.861,294.563,80.215,290.827,78.667z M20,129.844V97.906h14.625v31.938H20z
		 M225.063,208.489c0,4.365-3.552,7.917-7.917,7.917H62.542c-4.365,0-7.917-3.552-7.917-7.917V88.511
		c0-4.365,3.552-7.917,7.917-7.917h154.604c4.365,0,7.917,3.552,7.917,7.917V208.489z M277,150.326l-0.241-0.241
		c-1.876-1.875-4.419-2.929-7.071-2.929h-24.625v-31.938h24.625c2.652,0,5.195-1.054,7.071-2.929l0.241-0.241V150.326z"/>
	<path d="M203.848,94.021H75.84c-3.866,0-7,3.134-7,7v43.02c0,3.866,3.134,7,7,7h128.008c3.866,0,7-3.134,7-7v-43.02
		C210.848,97.155,207.714,94.021,203.848,94.021z M196.848,137.041H82.84v-29.02h114.008V137.041z"/>
</g>
<g>
</g>
<g>
</g>
<g>
</g>
<g>
</g>
<g>
</g>
<g>
</g>
<g>
</g>
<g>
</g>
<g>
</g>
<g>
</g>
<g>
</g>
<g>
</g>
<g>
</g>
<g>
</g>
<g>
</g>
</svg>
