<?xml version="1.0" encoding="iso-8859-1"?>
<!-- Generator: Adobe Illustrator 19.0.0, SVG Export Plug-In . SVG Version: 6.00 Build 0)  -->
<svg version="1.1" id="Capa_1" xmlns="http://www.w3.org/2000/svg" xmlns:xlink="http://www.w3.org/1999/xlink" x="0px" y="0px"
	 viewBox="0 0 430 430" style="enable-background:new 0 0 430 430;" xml:space="preserve">
<g id="XMLID_964_">
	<path id="XMLID_965_" d="M310,200V95c0-52.383-42.617-95-95-95s-95,42.617-95,95v105H60v15c0,80.407,61.545,146.702,140,154.272
		V400h-80v30h190v-30h-80v-30.728c78.455-7.569,140-73.864,140-154.272v-15H310z M150,215v-15h130v15c0,35.841-29.159,65-65,65
		C179.159,280,150,250.841,150,215z M215,30c35.841,0,65,29.159,65,65v75H150V95C150,59.159,179.159,30,215,30z M90.895,230h30.293
		c6.435,40.393,38.418,72.377,78.812,78.811v30.291C143.038,332.26,97.735,286.963,90.895,230z M230,339.103v-30.291
		c40.393-6.434,72.377-38.419,78.811-78.811h30.294C332.265,286.963,286.962,332.26,230,339.103z"/>
</g>
<g>
</g>
<g>
</g>
<g>
</g>
<g>
</g>
<g>
</g>
<g>
</g>
<g>
</g>
<g>
</g>
<g>
</g>
<g>
</g>
<g>
</g>
<g>
</g>
<g>
</g>
<g>
</g>
<g>
</g>
</svg>
